# xmcd
#
# Track frame offsets:
# 150
# 17273
# 43050
# 63233
# 91030
# 109009
# 132221
# 148039
# 171322
# 188353
# 214754
#
# Disc length: 3137 seconds
#
# Revision: 0
# Processed by: cddbd v1.4PL0 Copyright (c) Steve Scherf et al.
# Submitted via: Axialis_AX_CDPlayer 2.6
#
DISCID=8a0c3f0b
DTITLE=Solomon Burke - Don´t give up on me
DYEAR=1900
DGENRE=
TTITLE0=Don´t give up on me
TTITLE1=Fast train
TTITLE2=Diamond in your mind
TTITLE3=Flesh and blood
TTITLE4=Soul searchin´
TTITLE5=Only a dream
TTITLE6=The judgment
TTITLE7=Stepchild
TTITLE8=The other side of the coin
TTITLE9=None of us are free
TTITLE10=Sit this one out
EXTD=
EXTT0=
EXTT1=
EXTT2=
EXTT3=
EXTT4=
EXTT5=
EXTT6=
EXTT7=
EXTT8=
EXTT9=
EXTT10=
PLAYORDER=
